<svg width="196" height="128" viewBox="0 0 196 128" fill="none" xmlns="http://www.w3.org/2000/svg">
<path d="M191.397 57.2004L163.822 40.3001L98.0002 78.9929L32.1779 40.3001L4.60367 57.2004C3.24139 57.9329 2.1063 59.0253 1.32207 60.3585C0.53785 61.6917 0.134585 63.2145 0.156223 64.7611C0.221801 66.2892 0.661648 67.7777 1.43712 69.096C2.21259 70.4143 3.29995 71.522 4.60367 72.3218L93.5527 125.691C94.8692 126.571 96.4169 127.04 98.0002 127.04C99.5834 127.04 101.131 126.571 102.448 125.691L191.397 72.3218C192.7 71.522 193.788 70.4143 194.563 69.096C195.339 67.7777 195.779 66.2892 195.844 64.7611C195.866 63.2145 195.462 61.6917 194.678 60.3585C193.894 59.0253 192.759 57.9329 191.397 57.2004Z" fill="white"/>
<path d="M4.45534 71.3671L32.0733 88.637L98 49.098L163.927 88.637L191.545 71.3671C192.909 70.6186 194.046 69.5023 194.831 68.14C195.617 66.7776 196.021 65.2215 195.999 63.6411C195.933 62.0796 195.493 60.5585 194.716 59.2113C193.94 57.8642 192.85 56.7323 191.545 55.9151L102.455 1.3786C101.136 0.479767 99.5858 2.28882e-05 98 2.28882e-05C96.4142 2.28882e-05 94.864 0.479767 93.5455 1.3786L4.45534 55.9151C3.14954 56.7323 2.06046 57.8642 1.28375 59.2113C0.50705 60.5585 0.0664978 62.0796 0.000823975 63.6411C-0.0208435 65.2215 0.383057 66.7776 1.16852 68.14C1.95399 69.5023 3.0909 70.6186 4.45534 71.3671Z" fill="#DDDDDD"/>
</svg>
